<svg id="svg" version="1.1" width="400" height="400" viewBox="0 0 400 400" xmlns="http://www.w3.org/2000/svg" xmlns:xlink="http://www.w3.org/1999/xlink" ><g id="svgg"><path id="path0" d="M186.400 16.400 C 186.400 16.633,185.067 16.800,183.200 16.800 C 181.333 16.800,180.000 16.967,180.000 17.200 C 180.000 17.420,179.190 17.600,178.200 17.600 C 177.210 17.600,176.400 17.780,176.400 18.000 C 176.400 18.220,175.680 18.400,174.800 18.400 C 173.920 18.400,173.200 18.580,173.200 18.800 C 173.200 19.020,172.480 19.200,171.600 19.200 C 170.720 19.200,170.000 19.380,170.000 19.600 C 170.000 19.820,169.460 20.000,168.800 20.000 C 168.140 20.000,167.600 20.180,167.600 20.400 C 167.600 20.620,166.880 20.800,166.000 20.800 C 165.120 20.800,164.400 20.980,164.400 21.200 C 164.400 21.420,163.961 21.600,163.424 21.600 C 162.887 21.600,162.336 21.780,162.200 22.000 C 162.064 22.220,161.513 22.400,160.976 22.400 C 160.439 22.400,160.000 22.580,160.000 22.800 C 160.000 23.020,159.460 23.200,158.800 23.200 C 158.140 23.200,157.600 23.380,157.600 23.600 C 157.600 23.820,157.240 24.000,156.800 24.000 C 156.360 24.000,156.000 24.180,156.000 24.400 C 156.000 24.620,155.460 24.800,154.800 24.800 C 154.140 24.800,153.600 24.980,153.600 25.200 C 153.600 25.420,153.240 25.600,152.800 25.600 C 152.360 25.600,152.000 25.780,152.000 26.000 C 152.000 26.220,151.640 26.400,151.200 26.400 C 150.760 26.400,150.400 26.580,150.400 26.800 C 150.400 27.020,150.120 27.200,149.778 27.200 C 148.869 27.200,145.814 28.660,145.216 29.380 C 144.934 29.721,144.541 30.000,144.344 30.000 C 143.730 30.000,138.800 35.151,138.800 35.793 C 138.800 36.127,138.620 36.400,138.400 36.400 C 138.180 36.400,138.000 36.760,138.000 37.200 C 138.000 37.640,137.820 38.000,137.600 38.000 C 137.380 38.000,137.200 38.280,137.200 38.622 C 137.200 38.964,136.075 40.320,134.700 41.634 C 130.486 45.663,129.206 46.987,129.203 47.317 C 129.201 47.492,128.750 48.120,128.200 48.713 C 127.650 49.307,127.200 50.036,127.200 50.335 C 127.200 50.634,126.660 51.383,126.000 52.000 C 125.340 52.617,124.800 53.369,124.800 53.672 C 124.800 53.975,124.440 54.483,124.000 54.800 C 123.560 55.117,123.200 55.657,123.200 56.000 C 123.200 56.343,122.840 56.883,122.400 57.200 C 121.960 57.517,121.600 58.057,121.600 58.400 C 121.600 58.743,121.240 59.283,120.800 59.600 C 120.360 59.917,120.000 60.324,120.000 60.505 C 120.000 60.686,119.640 61.220,119.200 61.692 C 118.760 62.164,118.400 62.787,118.400 63.075 C 118.400 63.364,118.220 63.600,118.000 63.600 C 117.780 63.600,117.600 63.920,117.600 64.312 C 117.600 64.703,117.240 65.283,116.800 65.600 C 116.360 65.917,116.000 66.457,116.000 66.800 C 116.000 67.143,115.640 67.683,115.200 68.000 C 114.730 68.339,114.400 69.035,114.400 69.688 C 114.400 70.300,114.220 70.800,114.000 70.800 C 113.780 70.800,113.600 71.160,113.600 71.600 C 113.600 72.040,113.420 72.400,113.200 72.400 C 112.980 72.400,112.800 72.940,112.800 73.600 C 112.800 74.260,112.620 74.800,112.400 74.800 C 112.180 74.800,112.000 75.160,112.000 75.600 C 112.000 76.040,111.864 76.400,111.698 76.400 C 111.281 76.400,110.505 78.294,110.180 80.100 C 110.032 80.925,109.751 81.600,109.555 81.600 C 109.360 81.600,109.200 82.140,109.200 82.800 C 109.200 83.460,109.020 84.000,108.800 84.000 C 108.580 84.000,108.400 84.360,108.400 84.800 C 108.400 85.240,108.220 85.600,108.000 85.600 C 107.780 85.600,107.600 86.140,107.600 86.800 C 107.600 87.460,107.420 88.000,107.200 88.000 C 106.980 88.000,106.800 88.540,106.800 89.200 C 106.800 89.860,106.620 90.400,106.400 90.400 C 106.180 90.400,106.000 91.120,106.000 92.000 C 106.000 92.880,105.820 93.600,105.600 93.600 C 105.357 93.600,105.200 95.400,105.200 98.200 C 105.200 101.000,105.357 102.800,105.600 102.800 C 105.820 102.800,106.000 103.779,106.000 104.976 C 106.000 106.173,106.180 107.264,106.400 107.400 C 106.620 107.536,106.800 108.627,106.800 109.824 C 106.800 111.021,106.620 112.000,106.400 112.000 C 106.180 112.000,106.000 112.360,106.000 112.800 C 106.000 113.240,105.820 113.600,105.600 113.600 C 105.380 113.600,105.200 114.100,105.200 114.712 C 105.200 115.365,104.870 116.061,104.400 116.400 C 103.960 116.717,103.600 117.257,103.600 117.600 C 103.600 117.943,103.240 118.483,102.800 118.800 C 102.360 119.117,102.000 119.621,102.000 119.920 C 102.000 120.218,101.280 121.154,100.400 122.000 C 99.520 122.846,98.800 123.722,98.800 123.947 C 98.800 124.173,96.370 126.790,93.400 129.764 C 90.430 132.737,88.000 135.374,88.000 135.624 C 88.000 135.874,87.460 136.583,86.800 137.200 C 86.140 137.817,85.600 138.537,85.600 138.800 C 85.600 139.063,85.060 139.783,84.400 140.400 C 83.740 141.017,83.200 141.809,83.200 142.160 C 83.200 142.512,83.020 142.800,82.800 142.800 C 82.580 142.800,82.400 143.239,82.400 143.776 C 82.400 144.313,82.220 144.864,82.000 145.000 C 81.780 145.136,81.600 145.687,81.600 146.224 C 81.600 146.761,81.780 147.200,82.000 147.200 C 82.220 147.200,82.400 147.920,82.400 148.800 C 82.400 149.680,82.580 150.400,82.800 150.400 C 83.020 150.400,83.200 150.676,83.200 151.013 C 83.200 151.762,85.769 154.400,86.498 154.400 C 86.787 154.400,87.283 154.760,87.600 155.200 C 87.917 155.640,88.497 156.000,88.888 156.000 C 89.280 156.000,89.600 156.180,89.600 156.400 C 89.600 156.620,89.960 156.800,90.400 156.800 C 90.840 156.800,91.200 156.980,91.200 157.200 C 91.200 157.420,91.650 157.600,92.200 157.600 C 93.306 157.600,94.800 158.864,94.800 159.800 C 94.800 160.130,94.980 160.400,95.200 160.400 C 95.420 160.400,95.600 161.032,95.600 161.805 C 95.600 163.436,95.158 164.350,93.300 166.569 C 92.307 167.755,92.635 174.694,93.700 175.030 C 94.195 175.187,94.891 175.649,95.247 176.057 C 95.603 176.466,96.188 176.800,96.547 176.800 C 96.906 176.800,97.200 176.980,97.200 177.200 C 97.200 177.420,97.560 177.600,98.000 177.600 C 98.440 177.600,98.800 177.780,98.800 178.000 C 98.800 178.220,99.340 178.400,100.000 178.400 C 100.660 178.400,101.200 178.580,101.200 178.800 C 101.200 179.020,100.840 179.200,100.400 179.200 C 99.960 179.200,99.600 179.380,99.600 179.600 C 99.600 179.820,99.324 180.000,98.987 180.000 C 98.298 180.000,95.600 182.543,95.600 183.192 C 95.600 183.422,95.377 183.968,95.104 184.405 C 94.709 185.038,94.709 185.362,95.104 185.995 C 95.377 186.432,95.600 187.064,95.600 187.400 C 95.600 188.897,97.445 191.200,98.644 191.200 C 99.150 191.200,100.014 191.650,100.564 192.200 C 101.114 192.750,101.842 193.200,102.182 193.200 C 102.533 193.200,102.800 193.545,102.800 194.000 C 102.800 194.440,102.620 194.800,102.400 194.800 C 102.180 194.800,102.000 195.160,102.000 195.600 C 102.000 196.040,101.820 196.400,101.600 196.400 C 101.380 196.400,101.200 196.760,101.200 197.200 C 101.200 197.640,101.020 198.000,100.800 198.000 C 100.554 198.000,100.400 200.000,100.400 203.200 C 100.400 206.400,100.554 208.400,100.800 208.400 C 101.020 208.400,101.200 208.850,101.200 209.400 C 101.200 209.950,101.380 210.400,101.600 210.400 C 101.820 210.400,102.000 210.760,102.000 211.200 C 102.000 211.640,102.180 212.000,102.400 212.000 C 102.620 212.000,102.800 212.274,102.800 212.609 C 102.800 213.401,106.999 217.600,107.791 217.600 C 108.126 217.600,108.400 217.780,108.400 218.000 C 108.400 218.220,109.019 218.400,109.776 218.400 C 110.533 218.400,111.264 218.580,111.400 218.800 C 111.737 219.345,132.285 219.345,132.467 218.799 C 132.654 218.238,145.339 218.217,145.526 218.778 C 145.603 219.010,145.928 219.200,146.247 219.200 C 147.360 219.200,150.400 222.856,150.400 224.195 C 150.400 224.528,150.580 224.800,150.800 224.800 C 151.020 224.800,151.200 225.070,151.200 225.400 C 151.200 225.730,151.380 226.000,151.600 226.000 C 151.820 226.000,152.000 226.360,152.000 226.800 C 152.000 227.240,152.180 227.600,152.400 227.600 C 152.620 227.600,152.800 227.960,152.800 228.400 C 152.800 228.840,152.980 229.200,153.200 229.200 C 153.420 229.200,153.600 229.560,153.600 230.000 C 153.600 230.440,153.780 230.800,154.000 230.800 C 154.220 230.800,154.400 231.160,154.400 231.600 C 154.400 232.040,154.580 232.400,154.800 232.400 C 155.020 232.400,155.200 232.760,155.200 233.200 C 155.200 233.640,155.380 234.000,155.600 234.000 C 155.820 234.000,156.000 234.360,156.000 234.800 C 156.000 235.240,156.180 235.600,156.400 235.600 C 156.620 235.600,156.800 235.960,156.800 236.400 C 156.800 236.840,156.980 237.200,157.200 237.200 C 157.420 237.200,157.600 237.560,157.600 238.000 C 157.600 238.440,157.780 238.800,158.000 238.800 C 158.220 238.800,158.400 239.160,158.400 239.600 C 158.400 240.040,158.580 240.400,158.800 240.400 C 159.020 240.400,159.200 240.670,159.200 241.000 C 159.200 241.330,159.357 241.600,159.548 241.600 C 159.740 241.600,160.016 242.500,160.162 243.600 C 160.308 244.700,160.601 245.600,160.814 245.600 C 161.026 245.600,161.200 246.039,161.200 246.576 C 161.200 247.113,161.380 247.664,161.600 247.800 C 161.820 247.936,162.000 248.397,162.000 248.824 C 162.000 249.251,162.180 249.600,162.400 249.600 C 162.620 249.600,162.800 249.960,162.800 250.400 C 162.800 250.840,162.980 251.200,163.200 251.200 C 163.420 251.200,163.600 251.639,163.600 252.176 C 163.600 252.713,163.780 253.264,164.000 253.400 C 164.220 253.536,164.400 253.997,164.400 254.424 C 164.400 254.851,164.580 255.200,164.800 255.200 C 165.020 255.200,165.200 255.560,165.200 256.000 C 165.200 256.440,165.380 256.800,165.600 256.800 C 165.820 256.800,166.000 257.250,166.000 257.800 C 166.000 258.350,166.180 258.800,166.400 258.800 C 166.620 258.800,166.800 259.160,166.800 259.600 C 166.800 260.040,166.980 260.400,167.200 260.400 C 167.420 260.400,167.600 260.760,167.600 261.200 C 167.600 261.640,167.780 262.000,168.000 262.000 C 168.220 262.000,168.400 262.320,168.400 262.712 C 168.400 263.103,168.760 263.683,169.200 264.000 C 169.640 264.317,170.000 264.897,170.000 265.288 C 170.000 265.680,170.180 266.000,170.400 266.000 C 170.620 266.000,170.800 266.540,170.800 267.200 C 170.800 267.860,170.980 268.400,171.200 268.400 C 171.420 268.400,171.600 268.760,171.600 269.200 C 171.600 269.640,171.780 270.000,172.000 270.000 C 172.220 270.000,172.400 270.540,172.400 271.200 C 172.400 271.860,172.580 272.400,172.800 272.400 C 173.020 272.400,173.200 272.940,173.200 273.600 C 173.200 274.260,173.380 274.800,173.600 274.800 C 173.820 274.800,174.000 275.430,174.000 276.200 C 174.000 276.970,174.180 277.600,174.400 277.600 C 174.620 277.600,174.800 278.320,174.800 279.200 C 174.800 280.080,174.980 280.800,175.200 280.800 C 175.448 280.800,175.600 282.933,175.600 286.400 C 175.600 289.867,175.448 292.000,175.200 292.000 C 174.969 292.000,174.800 293.267,174.800 295.000 C 174.800 296.733,174.631 298.000,174.400 298.000 C 174.180 298.000,174.000 298.540,174.000 299.200 C 174.000 300.333,173.911 300.400,172.400 300.400 C 171.520 300.400,170.800 300.580,170.800 300.800 C 170.800 301.020,170.517 301.200,170.171 301.200 C 169.400 301.200,168.400 302.151,168.400 302.883 C 168.400 303.180,168.040 303.683,167.600 304.000 C 167.160 304.317,166.800 304.897,166.800 305.288 C 166.800 305.680,166.620 306.000,166.400 306.000 C 166.180 306.000,166.000 306.468,166.000 307.040 C 166.000 307.679,165.538 308.511,164.800 309.200 C 164.140 309.817,163.600 310.482,163.600 310.679 C 163.600 310.876,162.880 311.741,162.000 312.600 C 161.120 313.459,160.400 314.388,160.400 314.663 C 160.400 314.938,159.950 315.614,159.400 316.164 C 158.850 316.714,158.400 317.370,158.400 317.621 C 158.400 317.873,157.860 318.583,157.200 319.200 C 156.540 319.817,156.000 320.609,156.000 320.960 C 156.000 321.312,155.820 321.600,155.600 321.600 C 155.380 321.600,155.200 321.960,155.200 322.400 C 155.200 322.840,155.020 323.200,154.800 323.200 C 154.580 323.200,154.400 323.740,154.400 324.400 C 154.400 325.060,154.220 325.600,154.000 325.600 C 153.780 325.600,153.600 326.219,153.600 326.976 C 153.600 327.733,153.420 328.464,153.200 328.600 C 152.980 328.736,152.800 330.187,152.800 331.824 C 152.800 333.541,152.631 334.800,152.400 334.800 C 152.180 334.800,152.000 335.340,152.000 336.000 C 152.000 336.660,151.820 337.200,151.600 337.200 C 151.380 337.200,151.200 337.484,151.200 337.831 C 151.200 338.179,150.480 339.154,149.600 340.000 C 148.720 340.846,147.998 341.776,147.996 342.069 C 147.994 342.361,147.454 343.025,146.796 343.545 C 146.138 344.065,145.599 344.695,145.598 344.945 C 145.597 345.195,144.787 346.254,143.798 347.299 C 142.809 348.343,142.000 349.389,142.000 349.624 C 142.000 349.860,141.100 350.929,140.000 352.000 C 138.900 353.071,138.000 354.154,138.000 354.407 C 138.000 354.659,136.560 356.265,134.800 357.976 C 133.040 359.687,131.600 361.204,131.600 361.347 C 131.600 361.490,131.060 362.172,130.400 362.863 C 129.740 363.554,129.200 364.362,129.200 364.659 C 129.200 364.957,129.033 365.200,128.829 365.200 C 128.625 365.200,128.140 365.920,127.752 366.800 C 127.364 367.680,126.901 368.400,126.723 368.400 C 126.545 368.400,126.400 368.760,126.400 369.200 C 126.400 369.640,126.220 370.000,126.000 370.000 C 125.780 370.000,125.600 370.320,125.600 370.712 C 125.600 371.103,125.240 371.683,124.800 372.000 C 124.360 372.317,124.000 372.897,124.000 373.288 C 124.000 373.680,123.820 374.000,123.600 374.000 C 123.380 374.000,123.200 374.360,123.200 374.800 C 123.200 375.240,123.020 375.600,122.800 375.600 C 122.580 375.600,122.400 375.917,122.400 376.304 C 122.400 376.691,122.040 377.232,121.600 377.507 C 121.160 377.782,120.800 378.275,120.800 378.603 C 120.800 378.932,120.620 379.200,120.400 379.200 C 120.180 379.200,120.000 379.560,120.000 380.000 C 120.000 380.440,119.820 380.800,119.600 380.800 C 119.380 380.800,119.200 381.520,119.200 382.400 L 119.200 384.000 211.800 384.000 L 304.400 384.000 304.400 368.000 C 304.400 357.600,304.260 352.000,304.000 352.000 C 303.762 352.000,303.600 350.475,303.600 348.224 C 303.600 346.137,303.421 344.337,303.200 344.200 C 302.980 344.064,302.800 342.973,302.800 341.776 C 302.800 340.579,302.620 339.600,302.400 339.600 C 302.180 339.600,302.000 339.060,302.000 338.400 C 302.000 337.740,301.820 337.200,301.600 337.200 C 301.380 337.200,301.200 336.660,301.200 336.000 C 301.200 335.340,301.020 334.800,300.800 334.800 C 300.580 334.800,300.400 334.440,300.400 334.000 C 300.400 333.560,300.220 333.200,300.000 333.200 C 299.780 333.200,299.600 332.840,299.600 332.400 C 299.600 331.960,299.420 331.600,299.200 331.600 C 298.980 331.600,298.800 331.240,298.800 330.800 C 298.800 330.360,298.620 330.000,298.400 330.000 C 298.180 330.000,298.000 329.640,298.000 329.200 C 298.000 328.760,297.820 328.400,297.600 328.400 C 297.380 328.400,297.200 328.130,297.200 327.800 C 297.200 327.470,297.020 327.200,296.800 327.200 C 296.580 327.200,296.400 326.840,296.400 326.400 C 296.400 325.960,296.220 325.600,296.000 325.600 C 295.780 325.600,295.600 325.240,295.600 324.800 C 295.600 324.360,295.420 324.000,295.200 324.000 C 294.980 324.000,294.800 323.680,294.800 323.288 C 294.800 322.897,294.440 322.317,294.000 322.000 C 293.560 321.683,293.200 321.169,293.200 320.859 C 293.200 320.548,292.864 320.003,292.454 319.647 C 292.043 319.291,291.583 318.433,291.431 317.741 C 291.279 317.049,290.805 316.166,290.377 315.779 C 289.950 315.393,289.600 314.868,289.600 314.613 C 289.600 314.359,289.285 313.802,288.900 313.375 C 288.515 312.949,287.945 312.105,287.632 311.500 C 287.320 310.895,286.915 310.400,286.732 310.400 C 286.550 310.400,286.400 310.202,286.400 309.960 C 286.400 309.719,285.860 309.017,285.200 308.400 C 284.540 307.783,284.000 307.031,284.000 306.728 C 284.000 306.425,283.640 305.917,283.200 305.600 C 282.760 305.283,282.400 304.775,282.400 304.472 C 282.400 304.169,281.860 303.417,281.200 302.800 C 280.540 302.183,280.000 301.431,280.000 301.128 C 280.000 300.825,279.640 300.317,279.200 300.000 C 278.760 299.683,278.400 299.143,278.400 298.800 C 278.400 298.457,278.040 297.917,277.600 297.600 C 277.160 297.283,276.800 296.769,276.800 296.459 C 276.800 296.148,276.466 295.603,276.057 295.247 C 275.649 294.891,275.187 294.195,275.030 293.700 C 274.874 293.205,274.578 292.800,274.373 292.800 C 274.168 292.800,274.000 292.440,274.000 292.000 C 274.000 291.560,273.820 291.200,273.600 291.200 C 273.380 291.200,273.200 290.840,273.200 290.400 C 273.200 289.960,273.020 289.600,272.800 289.600 C 272.580 289.600,272.400 289.240,272.400 288.800 C 272.400 288.360,272.220 288.000,272.000 288.000 C 271.780 288.000,271.600 287.680,271.600 287.288 C 271.600 286.897,271.240 286.317,270.800 286.000 C 270.360 285.683,270.000 285.103,270.000 284.712 C 270.000 284.320,269.820 284.000,269.600 284.000 C 269.380 284.000,269.200 283.640,269.200 283.200 C 269.200 282.760,269.020 282.400,268.800 282.400 C 268.580 282.400,268.400 282.040,268.400 281.600 C 268.400 281.160,268.220 280.800,268.000 280.800 C 267.780 280.800,267.600 280.440,267.600 280.000 C 267.600 279.560,267.454 279.200,267.275 279.200 C 267.096 279.200,266.702 278.570,266.400 277.800 C 266.098 277.030,265.704 276.400,265.525 276.400 C 265.346 276.400,265.200 276.080,265.200 275.688 C 265.200 275.297,264.840 274.717,264.400 274.400 C 263.960 274.083,263.600 273.503,263.600 273.112 C 263.600 272.720,263.420 272.400,263.200 272.400 C 262.980 272.400,262.800 272.040,262.800 271.600 C 262.800 271.160,262.620 270.800,262.400 270.800 C 262.180 270.800,262.000 270.440,262.000 270.000 C 262.000 269.560,261.820 269.200,261.600 269.200 C 261.380 269.200,261.200 268.840,261.200 268.400 C 261.200 267.960,261.020 267.600,260.800 267.600 C 260.580 267.600,260.400 267.240,260.400 266.800 C 260.400 266.360,260.220 266.000,260.000 266.000 C 259.780 266.000,259.600 265.640,259.600 265.200 C 259.600 264.760,259.420 264.400,259.200 264.400 C 258.980 264.400,258.800 264.112,258.800 263.760 C 258.800 262.824,257.553 260.301,256.720 259.553 C 256.324 259.197,256.000 258.612,256.000 258.253 C 256.000 257.894,255.820 257.600,255.600 257.600 C 255.380 257.600,255.200 257.240,255.200 256.800 C 255.200 256.360,255.020 256.000,254.800 256.000 C 254.580 256.000,254.400 255.640,254.400 255.200 C 254.400 254.760,254.220 254.400,254.000 254.400 C 253.780 254.400,253.600 254.040,253.600 253.600 C 253.600 253.160,253.420 252.800,253.200 252.800 C 252.980 252.800,252.800 252.440,252.800 252.000 C 252.800 251.560,252.620 251.200,252.400 251.200 C 252.180 251.200,252.000 250.840,252.000 250.400 C 252.000 249.960,251.820 249.600,251.600 249.600 C 251.380 249.600,251.200 249.280,251.200 248.888 C 251.200 248.497,250.840 247.917,250.400 247.600 C 249.960 247.283,249.600 246.703,249.600 246.312 C 249.600 245.920,249.420 245.600,249.200 245.600 C 248.980 245.600,248.800 245.150,248.800 244.600 C 248.800 244.050,248.620 243.600,248.400 243.600 C 248.180 243.600,248.000 243.240,248.000 242.800 C 248.000 242.360,247.820 242.000,247.600 242.000 C 247.380 242.000,247.200 241.460,247.200 240.800 C 247.200 240.140,247.020 239.600,246.800 239.600 C 246.580 239.600,246.400 239.240,246.400 238.800 C 246.400 238.360,246.220 238.000,246.000 238.000 C 245.780 238.000,245.600 237.460,245.600 236.800 C 245.600 236.140,245.420 235.600,245.200 235.600 C 244.980 235.600,244.800 235.060,244.800 234.400 C 244.800 233.740,244.620 233.200,244.400 233.200 C 244.180 233.200,244.000 232.660,244.000 232.000 C 244.000 231.340,243.820 230.800,243.600 230.800 C 243.380 230.800,243.200 230.260,243.200 229.600 C 243.200 228.940,243.020 228.400,242.800 228.400 C 242.580 228.400,242.400 227.950,242.400 227.400 C 242.400 226.850,242.234 226.400,242.032 226.400 C 241.829 226.400,241.538 225.227,241.385 223.794 C 241.231 222.361,240.947 221.091,240.753 220.971 C 240.559 220.851,240.400 220.144,240.400 219.400 C 240.400 218.656,240.220 217.936,240.000 217.800 C 239.780 217.664,239.600 216.944,239.600 216.200 C 239.600 215.456,239.420 214.736,239.200 214.600 C 238.960 214.451,238.800 211.729,238.800 207.776 C 238.800 203.659,238.950 201.200,239.200 201.200 C 239.421 201.200,239.600 200.158,239.600 198.875 C 239.600 196.588,239.624 196.540,241.000 196.000 C 241.770 195.698,242.400 195.304,242.400 195.125 C 242.400 194.946,242.720 194.800,243.112 194.800 C 243.503 194.800,244.083 194.440,244.400 194.000 C 244.717 193.560,245.215 193.200,245.506 193.200 C 245.798 193.200,246.470 192.795,246.999 192.300 C 248.580 190.822,249.146 190.400,249.549 190.400 C 250.019 190.400,254.400 186.026,254.400 185.557 C 254.400 185.371,255.390 184.196,256.600 182.947 C 257.810 181.698,258.800 180.419,258.800 180.106 C 258.800 179.793,259.520 178.846,260.400 178.000 C 261.280 177.154,262.000 176.191,262.000 175.858 C 262.000 175.526,262.331 175.149,262.736 175.020 C 263.141 174.892,263.726 174.295,264.036 173.693 C 264.346 173.092,265.095 172.123,265.700 171.540 C 266.305 170.956,266.800 170.231,266.800 169.928 C 266.800 169.625,267.160 169.117,267.600 168.800 C 268.040 168.483,268.400 167.943,268.400 167.600 C 268.400 167.257,268.760 166.717,269.200 166.400 C 269.640 166.083,270.000 165.503,270.000 165.112 C 270.000 164.720,270.180 164.400,270.400 164.400 C 270.620 164.400,270.800 164.040,270.800 163.600 C 270.800 163.160,270.980 162.800,271.200 162.800 C 271.420 162.800,271.600 162.440,271.600 162.000 C 271.600 161.560,271.780 161.200,272.000 161.200 C 272.220 161.200,272.400 160.840,272.400 160.400 C 272.400 159.960,272.535 159.599,272.700 159.597 C 273.088 159.593,274.000 157.631,274.000 156.800 C 274.000 156.448,274.172 155.988,274.383 155.777 C 274.593 155.567,274.889 153.911,275.040 152.097 C 275.191 150.284,275.469 148.800,275.658 148.800 C 275.846 148.800,276.000 147.900,276.000 146.800 C 276.000 145.700,276.180 144.800,276.400 144.800 C 276.620 144.800,276.800 144.440,276.800 144.000 C 276.800 143.560,276.980 143.200,277.200 143.200 C 277.420 143.200,277.600 142.840,277.600 142.400 C 277.600 141.960,277.780 141.600,278.000 141.600 C 278.220 141.600,278.400 141.349,278.400 141.043 C 278.400 139.988,279.472 140.078,280.713 141.238 C 282.085 142.520,288.515 143.055,288.894 141.919 C 289.007 141.580,290.703 141.414,294.627 141.358 C 300.095 141.279,303.841 140.256,305.194 138.472 C 305.307 138.322,305.748 138.008,306.173 137.773 C 306.599 137.539,307.139 137.006,307.373 136.590 C 307.793 135.846,308.111 135.412,309.100 134.231 C 309.375 133.902,309.600 133.396,309.600 133.105 C 309.600 132.814,309.960 132.317,310.400 132.000 C 310.840 131.683,311.200 131.143,311.200 130.800 C 311.200 130.457,311.560 129.917,312.000 129.600 C 312.440 129.283,312.800 128.703,312.800 128.312 C 312.800 127.920,312.980 127.600,313.200 127.600 C 313.420 127.600,313.600 127.240,313.600 126.800 C 313.600 126.360,313.735 125.999,313.900 125.997 C 314.306 125.993,315.200 124.014,315.200 123.120 C 315.200 122.724,315.380 122.400,315.600 122.400 C 315.820 122.400,316.000 121.860,316.000 121.200 C 316.000 120.540,316.180 120.000,316.400 120.000 C 316.620 120.000,316.800 119.100,316.800 118.000 C 316.800 116.900,316.980 116.000,317.200 116.000 C 317.441 116.000,317.600 114.341,317.600 111.824 C 317.600 109.471,317.775 107.539,318.000 107.400 C 318.220 107.264,318.400 105.813,318.400 104.176 C 318.400 102.459,318.231 101.200,318.000 101.200 C 317.753 101.200,317.600 99.133,317.600 95.800 C 317.600 92.467,317.447 90.400,317.200 90.400 C 316.978 90.400,316.800 89.333,316.800 88.000 C 316.800 86.667,316.622 85.600,316.400 85.600 C 316.180 85.600,316.000 84.880,316.000 84.000 C 316.000 83.120,315.820 82.400,315.600 82.400 C 315.380 82.400,315.200 81.680,315.200 80.800 C 315.200 79.920,315.020 79.200,314.800 79.200 C 314.580 79.200,314.400 78.750,314.400 78.200 C 314.400 77.650,314.220 77.200,314.000 77.200 C 313.780 77.200,313.600 76.660,313.600 76.000 C 313.600 75.340,313.420 74.800,313.200 74.800 C 312.980 74.800,312.800 74.260,312.800 73.600 C 312.800 72.940,312.620 72.400,312.400 72.400 C 312.180 72.400,312.000 72.040,312.000 71.600 C 312.000 71.160,311.820 70.800,311.600 70.800 C 311.380 70.800,311.200 70.440,311.200 70.000 C 311.200 69.560,311.020 69.200,310.800 69.200 C 310.580 69.200,310.400 68.840,310.400 68.400 C 310.400 67.960,310.220 67.600,310.000 67.600 C 309.780 67.600,309.600 67.240,309.600 66.800 C 309.600 66.360,309.420 66.000,309.200 66.000 C 308.980 66.000,308.800 65.720,308.800 65.378 C 308.800 64.469,307.340 61.414,306.620 60.816 C 306.279 60.534,306.000 60.094,306.000 59.839 C 306.000 59.585,305.640 59.117,305.200 58.800 C 304.760 58.483,304.400 57.979,304.400 57.680 C 304.400 57.382,303.680 56.446,302.800 55.600 C 301.920 54.754,301.200 53.779,301.200 53.431 C 301.200 53.084,300.916 52.800,300.569 52.800 C 300.221 52.800,299.246 52.080,298.400 51.200 C 297.554 50.320,296.579 49.600,296.231 49.600 C 295.884 49.600,295.600 49.420,295.600 49.200 C 295.600 48.980,295.240 48.800,294.800 48.800 C 294.360 48.800,294.000 48.620,294.000 48.400 C 294.000 48.180,293.460 48.000,292.800 48.000 C 292.140 48.000,291.600 47.820,291.600 47.600 C 291.600 47.067,282.929 47.067,282.600 47.600 C 282.464 47.820,282.003 48.000,281.576 48.000 C 281.149 48.000,280.800 48.180,280.800 48.400 C 280.800 48.620,280.384 48.800,279.875 48.800 C 279.367 48.800,278.564 49.160,278.092 49.600 C 277.620 50.040,277.131 50.400,277.006 50.400 C 276.881 50.400,275.964 51.215,274.968 52.211 C 273.142 54.037,272.400 54.201,272.400 52.776 C 272.400 52.349,272.220 52.000,272.000 52.000 C 271.780 52.000,271.600 51.680,271.600 51.288 C 271.600 50.897,271.240 50.317,270.800 50.000 C 270.360 49.683,270.000 49.143,270.000 48.800 C 270.000 48.457,269.640 47.917,269.200 47.600 C 268.760 47.283,268.400 46.820,268.400 46.570 C 268.400 46.321,267.905 45.643,267.300 45.063 C 262.142 40.119,258.400 36.335,258.400 36.062 C 258.400 35.882,257.905 35.480,257.300 35.168 C 256.695 34.855,255.539 33.925,254.731 33.100 C 253.924 32.275,253.018 31.600,252.720 31.600 C 252.421 31.600,251.917 31.240,251.600 30.800 C 251.283 30.360,250.786 30.000,250.495 30.000 C 250.204 30.000,249.580 29.640,249.108 29.200 C 248.636 28.760,248.013 28.400,247.725 28.400 C 247.436 28.400,247.200 28.236,247.200 28.035 C 247.200 27.834,246.480 27.549,245.600 27.400 C 244.720 27.251,244.000 26.966,244.000 26.765 C 244.000 26.564,243.640 26.400,243.200 26.400 C 242.760 26.400,242.400 26.220,242.400 26.000 C 242.400 25.780,242.130 25.600,241.800 25.600 C 241.470 25.600,241.200 25.420,241.200 25.200 C 241.200 24.980,240.660 24.800,240.000 24.800 C 239.340 24.800,238.800 24.620,238.800 24.400 C 238.800 24.180,238.440 24.000,238.000 24.000 C 237.560 24.000,237.200 23.820,237.200 23.600 C 237.200 23.380,236.660 23.200,236.000 23.200 C 235.340 23.200,234.800 23.020,234.800 22.800 C 234.800 22.580,234.260 22.400,233.600 22.400 C 232.940 22.400,232.400 22.220,232.400 22.000 C 232.400 21.780,231.860 21.600,231.200 21.600 C 230.540 21.600,230.000 21.420,230.000 21.200 C 230.000 20.980,229.460 20.800,228.800 20.800 C 228.140 20.800,227.600 20.620,227.600 20.400 C 227.600 20.180,226.981 20.000,226.224 20.000 C 225.467 20.000,224.736 19.820,224.600 19.600 C 224.464 19.380,223.733 19.200,222.976 19.200 C 222.219 19.200,221.600 19.020,221.600 18.800 C 221.600 18.580,220.700 18.400,219.600 18.400 C 218.500 18.400,217.600 18.220,217.600 18.000 C 217.600 17.780,216.700 17.600,215.600 17.600 C 214.500 17.600,213.600 17.420,213.600 17.200 C 213.600 16.969,212.341 16.800,210.624 16.800 C 208.987 16.800,207.536 16.620,207.400 16.400 C 207.245 16.150,203.263 16.000,196.776 16.000 C 190.125 16.000,186.400 16.144,186.400 16.400 " stroke="none" fill="#2c2424" fill-rule="evenodd"></path><path id="path1" d="" stroke="none" fill="#302424" fill-rule="evenodd"></path><path id="path2" d="" stroke="none" fill="#302424" fill-rule="evenodd"></path><path id="path3" d="" stroke="none" fill="#302424" fill-rule="evenodd"></path><path id="path4" d="" stroke="none" fill="#302424" fill-rule="evenodd"></path></g></svg>